<svg width="45" height="45" viewBox="0 0 45 45" fill="none" xmlns="http://www.w3.org/2000/svg">
<path fill-rule="evenodd" clip-rule="evenodd" d="M10.7143 6C9.46398 6 8.26488 6.49668 7.38078 7.38078C6.49668 8.26488 6 9.46398 6 10.7143V34.2857C6 35.536 6.49668 36.7351 7.38078 37.6192C8.26488 38.5033 9.46398 39 10.7143 39H34.2857C35.536 39 36.7351 38.5033 37.6192 37.6192C38.5033 36.7351 39 35.536 39 34.2857V10.7143C39 9.46398 38.5033 8.26488 37.6192 7.38078C36.7351 6.49668 35.536 6 34.2857 6H10.7143ZM13.3119 16.1286C14.0589 16.1286 14.7754 15.8319 15.3036 15.3036C15.8319 14.7754 16.1286 14.0589 16.1286 13.3119C16.1286 12.5648 15.8319 11.8483 15.3036 11.3201C14.7754 10.7918 14.0589 10.4951 13.3119 10.4951C12.5648 10.4951 11.8483 10.7918 11.3201 11.3201C10.7918 11.8483 10.4951 12.5648 10.4951 13.3119C10.4951 14.0589 10.7918 14.7754 11.3201 15.3036C11.8483 15.8319 12.5648 16.1286 13.3119 16.1286ZM15.669 33.8449V18.3373H10.9547V33.8449H15.669ZM18.7993 18.3373H23.5136V20.4139C24.2089 19.3249 25.7364 17.8588 28.5767 17.8588C31.9663 17.8588 33.8072 20.1051 33.8072 24.3786C33.8072 24.5837 33.8261 25.5195 33.8261 25.5195V33.8426H29.1118V25.5219C29.1118 24.3786 28.8714 22.1323 26.3304 22.1323C23.787 22.1323 23.5725 24.9561 23.5136 26.8041V33.8426H18.7993V18.3373Z" fill="#8C8C8C"/>
</svg>
