<svg width="45" height="45" viewBox="0 0 45 45" fill="none" xmlns="http://www.w3.org/2000/svg">
<rect width="44.3125" height="44.0625" rx="22.0312" fill="#495366" fill-opacity="0.22"/>
<path fill-rule="evenodd" clip-rule="evenodd" d="M12 15.7812C12 15.3498 12.3498 15 12.7812 15H31.5312C31.9627 15 32.3125 15.3498 32.3125 15.7812C32.3125 16.2127 31.9627 16.5625 31.5312 16.5625H12.7812C12.3498 16.5625 12 16.2127 12 15.7812Z" fill="#495366"/>
<path fill-rule="evenodd" clip-rule="evenodd" d="M12 22.0312C12 21.5998 12.3498 21.25 12.7812 21.25H31.5312C31.9627 21.25 32.3125 21.5998 32.3125 22.0312C32.3125 22.4627 31.9627 22.8125 31.5312 22.8125H12.7812C12.3498 22.8125 12 22.4627 12 22.0312Z" fill="#BFBFBF"/>
<path fill-rule="evenodd" clip-rule="evenodd" d="M12 28.2812C12 27.8498 12.3498 27.5 12.7812 27.5H31.5312C31.9627 27.5 32.3125 27.8498 32.3125 28.2812C32.3125 28.7127 31.9627 29.0625 31.5312 29.0625H12.7812C12.3498 29.0625 12 28.7127 12 28.2812Z" fill="#495366"/>
</svg>
