<svg width="19" height="19" viewBox="0 0 19 19" fill="none" xmlns="http://www.w3.org/2000/svg">
<path d="M13.3819 12.466L12.9206 12.9515C12.9206 12.9515 11.8243 14.1058 8.83192 10.9553C5.83954 7.80484 6.93582 6.65065 6.93582 6.65065L7.22627 6.34486C7.9418 5.59158 8.00924 4.38219 7.38498 3.49928L6.10804 1.69322C5.3354 0.600449 3.84242 0.456095 2.95684 1.38844L1.36737 3.06186C0.92826 3.52416 0.634002 4.12344 0.669688 4.78824C0.760979 6.48902 1.48773 10.1483 5.54307 14.4179C9.84357 18.9455 13.8787 19.1254 15.5288 18.9626C16.0508 18.911 16.5046 18.6296 16.8704 18.2445L18.309 16.73C19.28 15.7077 19.0062 13.9551 17.7638 13.2399L15.8291 12.1263C15.0133 11.6568 14.0195 11.7947 13.3819 12.466Z" fill="#1E9AFF"/>
</svg>
