<svg width="34" height="34" viewBox="0 0 34 34" fill="none" xmlns="http://www.w3.org/2000/svg">
<path d="M16.6666 0C7.49997 0 0 7.48331 0 16.7C0 25.0333 6.09998 31.9499 14.0666 33.1999V21.5333H9.8333V16.7H14.0666V13.0166C14.0666 8.8333 16.5499 6.53331 20.3666 6.53331C22.1833 6.53331 24.0832 6.84998 24.0832 6.84998V10.9666H21.9833C19.9166 10.9666 19.2666 12.25 19.2666 13.5667V16.7H23.8999L23.1499 21.5333H19.2666V33.1999C23.1939 32.5796 26.7702 30.5758 29.3497 27.5499C31.9292 24.5243 33.3422 20.676 33.3332 16.7C33.3332 7.48331 25.8332 0 16.6666 0Z" fill="#8C8C8C"/>
</svg>
